; NON-PLATED HOLES START AT T1
; THROUGH (PLATED) HOLES START AT T100
M48
INCH
T100C0.038000
T101C0.015748
T102C0.125984
T103C0.040000
T104C0.036111
T105C0.031497
T106C0.035000
T107C0.041000
%
T100
X004444Y002333
X004444Y004333
X004444Y006333
X003444Y006333
X003444Y004333
X003444Y002333
X004444Y009333
X004444Y005333
X003444Y007333
X004444Y003333
X003444Y009333
X003444Y003333
X004444Y007333
X003444Y005333
X004444Y008333
X003444Y008333
T101
X013740Y019042
X015660Y018322
X009660Y018322
X001020Y004282
X002220Y019882
X019620Y012082
X022140Y014242
X008700Y012322
X014580Y015202
X006540Y012322
X006180Y021322
X010380Y010882
X002100Y010282
X001980Y006322
X009420Y002482
X001140Y007762
X005340Y012322
X021540Y014242
X009180Y010042
X010980Y001042
X010860Y014122
X022020Y016882
X009660Y012322
X018420Y015202
X019620Y015202
X016980Y019762
X018780Y011122
X001620Y009202
X019020Y015202
X006420Y020122
X011700Y019882
X001620Y001522
X005460Y007762
X007860Y012322
X011220Y019282
X002100Y013762
X009780Y010642
X017460Y014242
X005700Y006802
X005700Y008362
X005460Y009082
X016620Y012442
T102
X032444Y021333
X001444Y021333
X016444Y021333
T103
X003444Y021333
X007444Y020333
X010444Y016333
X014444Y016333
X010444Y018333
X007444Y017333
X014444Y021333
X014444Y018333
X010444Y017333
X014444Y019333
X007444Y019333
X014444Y020333
X007444Y021333
X010444Y019333
X003444Y019333
X014444Y017333
X003444Y017333
X010444Y021333
X003444Y016333
X010444Y020333
X003444Y020333
X003444Y018333
X007444Y016333
X007444Y018333
T104
X020444Y012333
X020444Y014333
X020444Y013333
X029444Y018333
X020444Y017333
X029444Y016333
X020444Y015333
X029444Y014333
X029444Y015333
X029444Y013333
X020444Y011333
X029444Y011333
X029444Y017333
X020444Y016333
X020444Y018333
X029444Y012333
T105
X031444Y016333
X031444Y017317
T106
X014444Y013333
X017444Y013333
X009444Y013333
X004444Y013333
X016444Y013333
X011444Y013333
X012444Y013333
X008444Y013333
X018444Y018333
X007444Y013333
X018444Y013333
X005444Y013333
X010444Y013333
X013444Y013333
X018444Y016333
X018444Y017333
X003444Y013333
X015444Y013333
X006444Y013333
T107
X026444Y019333
X024444Y019333
X025444Y015333
T00
M30
