G04 MADE WITH FRITZING*
G04 WWW.FRITZING.ORG*
G04 DOUBLE SIDED*
G04 HOLES PLATED*
G04 CONTOUR ON CENTER OF CONTOUR VECTOR*
%ASAXBY*%
%FSLAX23Y23*%
%MOIN*%
%OFA0B0*%
%SFA1.0B1.0*%
%ADD10C,0.077778*%
%ADD11C,0.075000*%
%ADD12C,0.064000*%
%ADD13C,0.062992*%
%ADD14C,0.099000*%
%ADD15C,0.165354*%
%ADD16C,0.078000*%
%ADD17C,0.039370*%
%ADD18R,0.075000X0.075000*%
%ADD19R,0.062992X0.062992*%
%ADD20R,0.099000X0.099000*%
%ADD21C,0.012000*%
%LNCOPPER1*%
G90*
G70*
G54D10*
X2044Y1133D03*
X2044Y1233D03*
X2044Y1333D03*
X2044Y1433D03*
X2044Y1533D03*
X2044Y1633D03*
X2044Y1733D03*
X2044Y1833D03*
X2944Y1833D03*
X2944Y1733D03*
X2944Y1633D03*
X2944Y1533D03*
X2944Y1433D03*
X2944Y1333D03*
X2944Y1233D03*
X2944Y1133D03*
X2044Y1133D03*
X2044Y1233D03*
X2044Y1333D03*
X2044Y1433D03*
X2044Y1533D03*
X2044Y1633D03*
X2044Y1733D03*
X2044Y1833D03*
X2944Y1833D03*
X2944Y1733D03*
X2944Y1633D03*
X2944Y1533D03*
X2944Y1433D03*
X2944Y1333D03*
X2944Y1233D03*
X2944Y1133D03*
G54D11*
X344Y1333D03*
X444Y1333D03*
X544Y1333D03*
X644Y1333D03*
X744Y1333D03*
X844Y1333D03*
X944Y1333D03*
X1044Y1333D03*
X1144Y1333D03*
X1244Y1333D03*
X1344Y1333D03*
X1444Y1333D03*
X1544Y1333D03*
X1644Y1333D03*
X1744Y1333D03*
X1844Y1333D03*
G54D12*
X344Y1733D03*
X344Y1833D03*
X344Y1933D03*
X344Y2033D03*
X344Y2133D03*
X744Y2133D03*
X744Y2033D03*
X744Y1933D03*
X744Y1833D03*
X744Y1733D03*
X744Y1633D03*
X344Y1633D03*
G54D13*
X3144Y1633D03*
X3144Y1732D03*
G54D14*
X2444Y1933D03*
X2644Y1933D03*
X2544Y1533D03*
G54D11*
X1844Y1833D03*
X1844Y1733D03*
X1844Y1633D03*
G54D12*
X1444Y2033D03*
X1444Y1933D03*
X1444Y1833D03*
X1444Y1733D03*
X1444Y1633D03*
X1044Y1633D03*
X1044Y1733D03*
X1044Y1833D03*
X1044Y1933D03*
X1044Y2033D03*
X1044Y2133D03*
X1444Y2133D03*
G54D15*
X144Y2133D03*
X1644Y2133D03*
X3244Y2133D03*
G54D16*
X344Y933D03*
X344Y833D03*
X344Y733D03*
X344Y633D03*
X344Y533D03*
X344Y433D03*
X344Y333D03*
X344Y233D03*
X344Y933D03*
X344Y833D03*
X344Y733D03*
X344Y633D03*
X344Y533D03*
X344Y433D03*
X344Y333D03*
X344Y233D03*
X444Y233D03*
X444Y333D03*
X444Y433D03*
X444Y533D03*
X444Y633D03*
X444Y733D03*
X444Y833D03*
X444Y933D03*
G54D17*
X1662Y1244D03*
X1878Y1112D03*
X534Y1232D03*
X918Y1004D03*
X210Y1028D03*
X570Y680D03*
X546Y776D03*
X642Y2012D03*
X1698Y1976D03*
X2202Y1688D03*
X2214Y1424D03*
X1098Y104D03*
X942Y248D03*
X570Y836D03*
X1962Y1208D03*
X618Y2132D03*
X2154Y1424D03*
X1566Y1832D03*
X966Y1832D03*
X1374Y1904D03*
X546Y908D03*
X1458Y1520D03*
X1746Y1424D03*
X114Y776D03*
X162Y920D03*
X210Y1376D03*
X222Y1988D03*
X1842Y1520D03*
X1086Y1412D03*
X162Y152D03*
X978Y1064D03*
X1902Y1520D03*
X198Y632D03*
X1122Y1928D03*
X786Y1232D03*
X654Y1232D03*
X102Y428D03*
X1170Y1988D03*
X1038Y1088D03*
X966Y1232D03*
X870Y1232D03*
X1962Y1520D03*
G54D18*
X344Y1334D03*
G54D19*
X3144Y1633D03*
G54D20*
X2644Y1933D03*
G54D21*
X2029Y1451D02*
X2010Y1472D01*
X2010Y1472D02*
X498Y1472D01*
X498Y1472D02*
X362Y1615D01*
D02*
X1454Y1857D02*
X1458Y1868D01*
X1458Y1868D02*
X1890Y1892D01*
X1890Y1892D02*
X2022Y1842D01*
D02*
X370Y1930D02*
X714Y1880D01*
X714Y1880D02*
X1098Y1880D01*
X1098Y1880D02*
X1419Y1837D01*
D02*
X974Y1821D02*
X1002Y1784D01*
X1002Y1784D02*
X1494Y1784D01*
X1494Y1784D02*
X1822Y1737D01*
D02*
X1376Y1918D02*
X1398Y2072D01*
X1398Y2072D02*
X1410Y2084D01*
X1410Y2084D02*
X1554Y2084D01*
X1554Y2084D02*
X1650Y1928D01*
X1650Y1928D02*
X1914Y1928D01*
X1914Y1928D02*
X1926Y1904D01*
X1926Y1904D02*
X2082Y1898D01*
X2082Y1898D02*
X2100Y1880D01*
X2100Y1880D02*
X2106Y1508D01*
X2106Y1508D02*
X2921Y1435D01*
D02*
X420Y833D02*
X369Y833D01*
D02*
X448Y1311D02*
X498Y980D01*
X498Y980D02*
X498Y872D01*
X498Y872D02*
X464Y848D01*
D02*
X2142Y1418D02*
X2106Y1400D01*
X2106Y1400D02*
X2100Y1088D01*
X2100Y1088D02*
X2010Y1076D01*
X2010Y1076D02*
X1761Y1317D01*
D02*
X2921Y1836D02*
X2574Y1868D01*
X2574Y1868D02*
X2468Y1922D01*
D02*
X3123Y1732D02*
X2968Y1733D01*
D02*
X2670Y1930D02*
X2982Y1886D01*
X2982Y1886D02*
X3006Y1868D01*
X3006Y1868D02*
X3006Y1784D01*
X3006Y1784D02*
X2963Y1748D01*
D02*
X1821Y1833D02*
X1579Y1832D01*
D02*
X325Y549D02*
X282Y584D01*
X282Y584D02*
X282Y860D01*
X282Y860D02*
X328Y915D01*
D02*
X1073Y1414D02*
X762Y1448D01*
X762Y1448D02*
X474Y1448D01*
X474Y1448D02*
X300Y1604D01*
X300Y1604D02*
X294Y1604D01*
X294Y1604D02*
X294Y1676D01*
X294Y1676D02*
X719Y1730D01*
D02*
X465Y520D02*
X498Y500D01*
X498Y500D02*
X498Y188D01*
X498Y188D02*
X486Y176D01*
X486Y176D02*
X282Y176D01*
X282Y176D02*
X258Y548D01*
X258Y548D02*
X258Y884D01*
X258Y884D02*
X282Y908D01*
X282Y908D02*
X282Y1388D01*
X282Y1388D02*
X474Y1388D01*
X474Y1388D02*
X474Y1448D01*
D02*
X1842Y1534D02*
X1842Y1592D01*
X1842Y1592D02*
X1843Y1610D01*
D02*
X1328Y1350D02*
X1278Y1400D01*
X1278Y1400D02*
X1733Y1424D01*
D02*
X1445Y1522D02*
X770Y1629D01*
D02*
X552Y920D02*
X738Y1280D01*
X738Y1280D02*
X1290Y1280D01*
X1290Y1280D02*
X1328Y1317D01*
D02*
X647Y1310D02*
X653Y1246D01*
D02*
X786Y1219D02*
X786Y728D01*
X786Y728D02*
X522Y728D01*
X522Y728D02*
X522Y164D01*
X522Y164D02*
X510Y152D01*
X510Y152D02*
X234Y152D01*
X234Y152D02*
X234Y908D01*
X234Y908D02*
X258Y932D01*
X258Y932D02*
X258Y1412D01*
X258Y1412D02*
X270Y1808D01*
X270Y1808D02*
X294Y1808D01*
X294Y1808D02*
X294Y2072D01*
X294Y2072D02*
X306Y2084D01*
X306Y2084D02*
X1122Y2084D01*
X1122Y2084D02*
X1122Y1942D01*
D02*
X211Y632D02*
X234Y632D01*
X234Y632D02*
X234Y908D01*
D02*
X1544Y1310D02*
X1542Y1148D01*
X1542Y1148D02*
X1806Y1064D01*
X1806Y1064D02*
X1986Y1052D01*
X1986Y1052D02*
X2130Y1052D01*
X2130Y1052D02*
X2211Y1411D01*
D02*
X2197Y1701D02*
X2124Y1904D01*
X2124Y1904D02*
X2106Y1922D01*
X2106Y1922D02*
X1938Y1952D01*
X1938Y1952D02*
X1711Y1975D01*
D02*
X655Y2015D02*
X719Y2028D01*
D02*
X465Y647D02*
X498Y668D01*
X498Y668D02*
X498Y752D01*
X498Y752D02*
X546Y752D01*
X546Y752D02*
X546Y763D01*
D02*
X583Y681D02*
X810Y692D01*
X810Y692D02*
X810Y992D01*
X810Y992D02*
X954Y1136D01*
X954Y1136D02*
X1542Y1148D01*
D02*
X210Y1015D02*
X210Y668D01*
X210Y668D02*
X162Y668D01*
X162Y668D02*
X162Y560D01*
X162Y560D02*
X210Y128D01*
X210Y128D02*
X546Y128D01*
X546Y128D02*
X546Y632D01*
X546Y632D02*
X606Y632D01*
X606Y632D02*
X606Y656D01*
X606Y656D02*
X834Y656D01*
X834Y656D02*
X834Y956D01*
X834Y956D02*
X906Y998D01*
D02*
X535Y1246D02*
X542Y1310D01*
D02*
X1867Y1119D02*
X1673Y1237D01*
D02*
X974Y1051D02*
X858Y620D01*
X858Y620D02*
X570Y560D01*
X570Y560D02*
X570Y104D01*
X570Y104D02*
X186Y104D01*
X186Y104D02*
X168Y140D01*
D02*
X883Y1232D02*
X953Y1232D01*
D02*
X1038Y1075D02*
X1038Y488D01*
X1038Y488D02*
X594Y80D01*
X594Y80D02*
X150Y80D01*
X150Y80D02*
X150Y92D01*
X150Y92D02*
X126Y92D01*
X126Y92D02*
X126Y188D01*
X126Y188D02*
X138Y188D01*
X138Y188D02*
X138Y692D01*
X138Y692D02*
X186Y692D01*
X186Y692D02*
X132Y860D01*
X132Y860D02*
X120Y872D01*
X120Y872D02*
X192Y1892D01*
X192Y1892D02*
X270Y1940D01*
X270Y1940D02*
X270Y2096D01*
X270Y2096D02*
X276Y2096D01*
X276Y2096D02*
X306Y2180D01*
X306Y2180D02*
X1170Y2180D01*
X1170Y2180D02*
X1170Y2002D01*
D02*
X115Y428D02*
X138Y428D01*
X138Y428D02*
X138Y188D01*
D02*
X1902Y1534D02*
X1902Y1748D01*
X1902Y1748D02*
X2021Y1736D01*
D02*
X2031Y1614D02*
X1970Y1531D01*
D02*
X1466Y2147D02*
X1554Y2204D01*
X1554Y2204D02*
X270Y2204D01*
X270Y2204D02*
X225Y2001D01*
D02*
X208Y1363D02*
X174Y1076D01*
X174Y1076D02*
X162Y968D01*
X162Y968D02*
X162Y934D01*
D02*
X101Y773D02*
X66Y764D01*
X66Y764D02*
X66Y392D01*
X66Y392D02*
X102Y68D01*
X102Y68D02*
X126Y56D01*
X126Y56D02*
X2742Y56D01*
X2742Y56D02*
X3006Y1088D01*
X3006Y1088D02*
X3006Y1460D01*
X3006Y1460D02*
X2960Y1515D01*
D02*
X719Y2133D02*
X631Y2132D01*
D02*
X1956Y1220D02*
X1878Y1388D01*
X1878Y1388D02*
X1590Y1388D01*
X1590Y1388D02*
X1628Y1350D01*
D02*
X462Y751D02*
X546Y836D01*
X546Y836D02*
X557Y836D01*
D02*
X952Y239D02*
X1088Y113D01*
G04 End of Copper1*
M02*