; NON-PLATED HOLES START AT T1
; THROUGH (PLATED) HOLES START AT T100
M48
INCH
T100C0.035000
T101C0.031497
T102C0.036111
T103C0.015748
T104C0.041000
T105C0.040000
T106C0.125984
%
T100
X005444Y013333
X014444Y013333
X013444Y013333
X012444Y013333
X018444Y013333
X004444Y013333
X018444Y018333
X006444Y013333
X017444Y013333
X003444Y013333
X018444Y016333
X018444Y017333
X011444Y013333
X016444Y013333
X008444Y013333
X010444Y013333
X007444Y013333
X009444Y013333
X015444Y013333
T101
X031444Y016333
X031444Y017317
T102
X029444Y013333
X029444Y016333
X029444Y015333
X020444Y016333
X020444Y013333
X020444Y017333
X020444Y014333
X029444Y018333
X020444Y011333
X029444Y017333
X020444Y012333
X020444Y018333
X020444Y015333
X029444Y012333
X029444Y011333
X029444Y014333
T103
X014280Y010582
X021960Y010342
X013320Y019942
X015960Y018742
X023640Y014182
X008520Y008902
X002040Y017062
X019080Y015382
X014760Y011782
X012840Y011782
X017160Y018502
X002280Y014662
T104
X024444Y019333
X026444Y019333
X025444Y015333
T105
X007444Y016333
X014444Y018333
X003444Y017333
X007444Y017333
X014444Y021333
X010444Y020333
X014444Y017333
X014444Y020333
X007444Y021333
X010444Y019333
X014444Y016333
X007444Y019333
X010444Y016333
X010444Y021333
X003444Y016333
X007444Y020333
X010444Y017333
X003444Y020333
X014444Y019333
X010444Y018333
X007444Y018333
X003444Y018333
X003444Y021333
X003444Y019333
T106
X032444Y021333
X001444Y021333
X016444Y021333
T00
M30
