G04 MADE WITH FRITZING*
G04 WWW.FRITZING.ORG*
G04 DOUBLE SIDED*
G04 HOLES PLATED*
G04 CONTOUR ON CENTER OF CONTOUR VECTOR*
%ASAXBY*%
%FSLAX23Y23*%
%MOIN*%
%OFA0B0*%
%SFA1.0B1.0*%
%ADD10C,0.077778*%
%ADD11C,0.075000*%
%ADD12C,0.064000*%
%ADD13C,0.062992*%
%ADD14C,0.099000*%
%ADD15C,0.165354*%
%ADD16C,0.078000*%
%ADD17C,0.039370*%
%ADD18R,0.075000X0.075000*%
%ADD19R,0.062992X0.062992*%
%ADD20R,0.099000X0.099000*%
%ADD21C,0.012000*%
%LNCOPPER0*%
G90*
G70*
G54D10*
X2044Y1133D03*
X2044Y1233D03*
X2044Y1333D03*
X2044Y1433D03*
X2044Y1533D03*
X2044Y1633D03*
X2044Y1733D03*
X2044Y1833D03*
X2944Y1833D03*
X2944Y1733D03*
X2944Y1633D03*
X2944Y1533D03*
X2944Y1433D03*
X2944Y1333D03*
X2944Y1233D03*
X2944Y1133D03*
X2044Y1133D03*
X2044Y1233D03*
X2044Y1333D03*
X2044Y1433D03*
X2044Y1533D03*
X2044Y1633D03*
X2044Y1733D03*
X2044Y1833D03*
X2944Y1833D03*
X2944Y1733D03*
X2944Y1633D03*
X2944Y1533D03*
X2944Y1433D03*
X2944Y1333D03*
X2944Y1233D03*
X2944Y1133D03*
G54D11*
X344Y1333D03*
X444Y1333D03*
X544Y1333D03*
X644Y1333D03*
X744Y1333D03*
X844Y1333D03*
X944Y1333D03*
X1044Y1333D03*
X1144Y1333D03*
X1244Y1333D03*
X1344Y1333D03*
X1444Y1333D03*
X1544Y1333D03*
X1644Y1333D03*
X1744Y1333D03*
X1844Y1333D03*
G54D12*
X344Y1733D03*
X344Y1833D03*
X344Y1933D03*
X344Y2033D03*
X344Y2133D03*
X744Y2133D03*
X744Y2033D03*
X744Y1933D03*
X744Y1833D03*
X744Y1733D03*
X744Y1633D03*
X344Y1633D03*
G54D13*
X3144Y1633D03*
X3144Y1732D03*
G54D14*
X2444Y1933D03*
X2644Y1933D03*
X2544Y1533D03*
G54D11*
X1844Y1833D03*
X1844Y1733D03*
X1844Y1633D03*
G54D12*
X1444Y2033D03*
X1444Y1933D03*
X1444Y1833D03*
X1444Y1733D03*
X1444Y1633D03*
X1044Y1633D03*
X1044Y1733D03*
X1044Y1833D03*
X1044Y1933D03*
X1044Y2033D03*
X1044Y2133D03*
X1444Y2133D03*
G54D15*
X144Y2133D03*
X1644Y2133D03*
X3244Y2133D03*
G54D16*
X344Y933D03*
X344Y833D03*
X344Y733D03*
X344Y633D03*
X344Y533D03*
X344Y433D03*
X344Y333D03*
X344Y233D03*
X344Y933D03*
X344Y833D03*
X344Y733D03*
X344Y633D03*
X344Y533D03*
X344Y433D03*
X344Y333D03*
X344Y233D03*
X444Y233D03*
X444Y333D03*
X444Y433D03*
X444Y533D03*
X444Y633D03*
X444Y733D03*
X444Y833D03*
X444Y933D03*
G54D17*
X966Y1832D03*
X1374Y1904D03*
X2154Y1424D03*
X1566Y1832D03*
X1086Y1412D03*
X1842Y1520D03*
X1746Y1424D03*
X1458Y1520D03*
X546Y908D03*
X654Y1232D03*
X786Y1232D03*
X1122Y1928D03*
X198Y632D03*
X2214Y1424D03*
X2202Y1688D03*
X1698Y1976D03*
X642Y2012D03*
X546Y776D03*
X570Y680D03*
X210Y1028D03*
X918Y1004D03*
X534Y1232D03*
X1878Y1112D03*
X1662Y1244D03*
X978Y1064D03*
X162Y152D03*
X870Y1232D03*
X966Y1232D03*
X1038Y1088D03*
X1170Y1988D03*
X102Y428D03*
X1902Y1520D03*
X1962Y1520D03*
X222Y1988D03*
X210Y1376D03*
X162Y920D03*
X114Y776D03*
X618Y2132D03*
X1962Y1208D03*
X570Y836D03*
X942Y248D03*
X1098Y104D03*
G54D18*
X344Y1334D03*
G54D19*
X3144Y1633D03*
G54D20*
X2644Y1933D03*
G54D21*
X3123Y1633D02*
X2968Y1633D01*
D02*
X1026Y2115D02*
X972Y2060D01*
X972Y2060D02*
X966Y1846D01*
D02*
X1425Y1750D02*
X1374Y1796D01*
X1374Y1796D02*
X1374Y1891D01*
D02*
X2032Y1553D02*
X2022Y1568D01*
X2022Y1568D02*
X510Y1568D01*
X510Y1568D02*
X363Y1715D01*
D02*
X1466Y1647D02*
X1818Y1880D01*
X1818Y1880D02*
X1818Y1892D01*
X1818Y1892D02*
X2094Y1886D01*
X2094Y1886D02*
X2100Y1880D01*
X2100Y1880D02*
X2106Y1364D01*
X2106Y1364D02*
X2921Y1334D01*
D02*
X727Y1915D02*
X618Y1796D01*
X618Y1796D02*
X294Y1784D01*
X294Y1784D02*
X294Y1604D01*
X294Y1604D02*
X318Y1580D01*
X318Y1580D02*
X462Y1580D01*
X462Y1580D02*
X446Y1356D01*
D02*
X1040Y1808D02*
X1038Y1796D01*
X1038Y1796D02*
X930Y1796D01*
X930Y1796D02*
X765Y1918D01*
D02*
X1728Y1350D02*
X1686Y1394D01*
X1686Y1394D02*
X1482Y1400D01*
X1482Y1400D02*
X1350Y1544D01*
X1350Y1544D02*
X474Y1544D01*
X474Y1544D02*
X462Y1580D01*
D02*
X2423Y1919D02*
X2154Y1736D01*
X2154Y1736D02*
X2130Y1424D01*
X2130Y1424D02*
X2141Y1424D01*
D02*
X1577Y1839D02*
X1674Y1898D01*
X1674Y1898D02*
X2406Y2000D01*
X2406Y2000D02*
X2502Y2000D01*
X2502Y2000D02*
X2621Y1944D01*
D02*
X369Y1839D02*
X690Y1916D01*
X690Y1916D02*
X690Y2060D01*
X690Y2060D02*
X714Y2084D01*
X714Y2084D02*
X954Y2084D01*
X954Y2084D02*
X1002Y2180D01*
X1002Y2180D02*
X1098Y2180D01*
X1098Y2180D02*
X1098Y2108D01*
X1098Y2108D02*
X1494Y2084D01*
X1494Y2084D02*
X1494Y1844D01*
X1494Y1844D02*
X1553Y1834D01*
D02*
X344Y1356D02*
X342Y1556D01*
X342Y1556D02*
X294Y1556D01*
X294Y1556D02*
X270Y1580D01*
X270Y1580D02*
X270Y1808D01*
X270Y1808D02*
X318Y1808D01*
X318Y1808D02*
X326Y1816D01*
D02*
X344Y958D02*
X344Y1310D01*
D02*
X728Y1317D02*
X690Y1280D01*
X690Y1280D02*
X402Y1280D01*
X402Y1280D02*
X361Y1318D01*
D02*
X1429Y1351D02*
X1386Y1400D01*
X1386Y1400D02*
X1099Y1412D01*
D02*
X1844Y1356D02*
X1842Y1507D01*
D02*
X464Y948D02*
X474Y956D01*
X474Y956D02*
X1470Y956D01*
X1470Y956D02*
X1828Y1317D01*
D02*
X1733Y1428D02*
X1471Y1516D01*
D02*
X462Y451D02*
X498Y488D01*
X498Y488D02*
X498Y908D01*
X498Y908D02*
X533Y908D01*
D02*
X667Y1232D02*
X773Y1232D01*
D02*
X1109Y1928D02*
X1098Y1928D01*
X1098Y1928D02*
X1098Y1808D01*
X1098Y1808D02*
X1062Y1760D01*
X1062Y1760D02*
X1058Y1755D01*
D02*
X320Y633D02*
X211Y632D01*
D02*
X2213Y1438D02*
X2203Y1675D01*
D02*
X1685Y1976D02*
X1518Y1976D01*
X1518Y1976D02*
X1518Y2108D01*
X1518Y2108D02*
X1482Y2180D01*
X1482Y2180D02*
X1122Y2204D01*
X1122Y2204D02*
X762Y2204D01*
X762Y2204D02*
X690Y2180D01*
X690Y2180D02*
X690Y2108D01*
X690Y2108D02*
X672Y2096D01*
X672Y2096D02*
X647Y2025D01*
D02*
X533Y776D02*
X522Y776D01*
X522Y776D02*
X522Y644D01*
X522Y644D02*
X559Y672D01*
D02*
X329Y753D02*
X282Y812D01*
X282Y812D02*
X282Y1028D01*
X282Y1028D02*
X223Y1028D01*
D02*
X906Y1011D02*
X546Y1225D01*
D02*
X2563Y1552D02*
X2910Y1892D01*
X2910Y1892D02*
X2994Y1892D01*
X2994Y1892D02*
X3198Y1772D01*
X3198Y1772D02*
X3198Y1580D01*
X3198Y1580D02*
X2982Y1076D01*
X2982Y1076D02*
X1998Y1076D01*
X1998Y1076D02*
X1891Y1108D01*
D02*
X1653Y1234D02*
X1470Y1016D01*
X1470Y1016D02*
X931Y1005D01*
D02*
X929Y1316D02*
X918Y1304D01*
X918Y1304D02*
X918Y1064D01*
X918Y1064D02*
X965Y1064D01*
D02*
X172Y162D02*
X327Y316D01*
D02*
X850Y1311D02*
X867Y1245D01*
D02*
X972Y1220D02*
X1032Y1100D01*
D02*
X1168Y1975D02*
X1158Y1892D01*
X1158Y1892D02*
X1122Y1784D01*
X1122Y1784D02*
X1056Y1656D01*
D02*
X320Y433D02*
X115Y429D01*
D02*
X361Y2114D02*
X366Y2108D01*
X366Y2108D02*
X426Y1952D01*
X426Y1952D02*
X426Y1880D01*
X426Y1880D02*
X306Y1880D01*
X306Y1880D02*
X294Y1832D01*
X294Y1832D02*
X246Y1832D01*
X246Y1832D02*
X246Y1544D01*
X246Y1544D02*
X318Y1520D01*
X318Y1520D02*
X318Y1388D01*
X318Y1388D02*
X282Y1388D01*
X282Y1388D02*
X282Y1268D01*
X282Y1268D02*
X318Y1268D01*
X318Y1268D02*
X318Y1064D01*
X318Y1064D02*
X174Y1064D01*
X174Y1064D02*
X174Y1004D01*
X174Y1004D02*
X66Y1004D01*
X66Y1004D02*
X66Y392D01*
X66Y392D02*
X126Y392D01*
X126Y392D02*
X126Y116D01*
X126Y116D02*
X654Y116D01*
X654Y116D02*
X834Y152D01*
X834Y152D02*
X1530Y476D01*
X1530Y476D02*
X1530Y968D01*
X1530Y968D02*
X1818Y1250D01*
X1818Y1250D02*
X1902Y1292D01*
X1902Y1292D02*
X1902Y1364D01*
X1902Y1364D02*
X1866Y1388D01*
X1866Y1388D02*
X1866Y1472D01*
X1866Y1472D02*
X1894Y1509D01*
D02*
X1960Y1507D02*
X1926Y1256D01*
X1926Y1256D02*
X1842Y1214D01*
X1842Y1214D02*
X1554Y932D01*
X1554Y932D02*
X1554Y440D01*
X1554Y440D02*
X810Y116D01*
X810Y116D02*
X750Y104D01*
X750Y104D02*
X750Y92D01*
X750Y92D02*
X102Y92D01*
X102Y92D02*
X102Y368D01*
X102Y368D02*
X42Y368D01*
X42Y368D02*
X42Y1076D01*
X42Y1076D02*
X150Y1076D01*
X150Y1076D02*
X150Y1088D01*
X150Y1088D02*
X294Y1088D01*
X294Y1088D02*
X294Y1232D01*
X294Y1232D02*
X258Y1232D01*
X258Y1232D02*
X258Y1412D01*
X258Y1412D02*
X222Y1508D01*
X222Y1508D02*
X222Y1856D01*
X222Y1856D02*
X270Y1856D01*
X270Y1856D02*
X300Y1964D01*
X300Y1964D02*
X331Y2012D01*
D02*
X235Y1988D02*
X270Y1988D01*
X270Y1988D02*
X246Y1892D01*
X246Y1892D02*
X198Y1892D01*
X198Y1892D02*
X198Y1772D01*
X198Y1772D02*
X174Y1772D01*
X174Y1772D02*
X209Y1390D01*
D02*
X158Y907D02*
X118Y789D01*
D02*
X627Y2142D02*
X666Y2180D01*
X666Y2180D02*
X306Y2180D01*
X306Y2180D02*
X186Y2024D01*
X186Y2024D02*
X18Y1100D01*
X18Y1100D02*
X18Y332D01*
X18Y332D02*
X78Y68D01*
X78Y68D02*
X774Y68D01*
X774Y68D02*
X1062Y128D01*
X1062Y128D02*
X1590Y296D01*
X1590Y296D02*
X1590Y896D01*
X1590Y896D02*
X1866Y1184D01*
X1866Y1184D02*
X1949Y1205D01*
D02*
X577Y825D02*
X935Y260D01*
D02*
X1087Y112D02*
X1062Y128D01*
G04 End of Copper0*
M02*