G04 MADE WITH FRITZING*
G04 WWW.FRITZING.ORG*
G04 DOUBLE SIDED*
G04 HOLES PLATED*
G04 CONTOUR ON CENTER OF CONTOUR VECTOR*
%ASAXBY*%
%FSLAX23Y23*%
%MOIN*%
%OFA0B0*%
%SFA1.0B1.0*%
%ADD10C,0.075000*%
%ADD11C,0.064000*%
%ADD12C,0.062992*%
%ADD13C,0.099000*%
%ADD14C,0.077778*%
%ADD15C,0.165354*%
%ADD16C,0.039370*%
%ADD17R,0.075000X0.075000*%
%ADD18R,0.062992X0.062992*%
%ADD19R,0.099000X0.099000*%
%ADD20C,0.024000*%
%LNCOPPER1*%
G90*
G70*
G54D10*
X344Y1333D03*
X444Y1333D03*
X544Y1333D03*
X644Y1333D03*
X744Y1333D03*
X844Y1333D03*
X944Y1333D03*
X1044Y1333D03*
X1144Y1333D03*
X1244Y1333D03*
X1344Y1333D03*
X1444Y1333D03*
X1544Y1333D03*
X1644Y1333D03*
X1744Y1333D03*
X1844Y1333D03*
G54D11*
X344Y1733D03*
X344Y1833D03*
X344Y1933D03*
X344Y2033D03*
X344Y2133D03*
X744Y2133D03*
X744Y2033D03*
X744Y1933D03*
X744Y1833D03*
X744Y1733D03*
X744Y1633D03*
X344Y1633D03*
G54D12*
X3144Y1633D03*
X3144Y1732D03*
G54D13*
X2444Y1933D03*
X2644Y1933D03*
X2544Y1533D03*
G54D10*
X1844Y1833D03*
X1844Y1733D03*
X1844Y1633D03*
G54D11*
X1444Y2033D03*
X1444Y1933D03*
X1444Y1833D03*
X1444Y1733D03*
X1444Y1633D03*
X1044Y1633D03*
X1044Y1733D03*
X1044Y1833D03*
X1044Y1933D03*
X1044Y2033D03*
X1044Y2133D03*
X1444Y2133D03*
G54D14*
X2044Y1133D03*
X2044Y1233D03*
X2044Y1333D03*
X2044Y1433D03*
X2044Y1533D03*
X2044Y1633D03*
X2044Y1733D03*
X2044Y1833D03*
X2944Y1833D03*
X2944Y1733D03*
X2944Y1633D03*
X2944Y1533D03*
X2944Y1433D03*
X2944Y1333D03*
X2944Y1233D03*
X2944Y1133D03*
X2044Y1133D03*
X2044Y1233D03*
X2044Y1333D03*
X2044Y1433D03*
X2044Y1533D03*
X2044Y1633D03*
X2044Y1733D03*
X2044Y1833D03*
X2944Y1833D03*
X2944Y1733D03*
X2944Y1633D03*
X2944Y1533D03*
X2944Y1433D03*
X2944Y1333D03*
X2944Y1233D03*
X2944Y1133D03*
G54D15*
X3244Y2133D03*
X1644Y2133D03*
X144Y2133D03*
G54D16*
X2196Y1034D03*
X1476Y1178D03*
X852Y890D03*
X2364Y1418D03*
X1716Y1850D03*
X228Y1466D03*
X1284Y1178D03*
X1332Y1994D03*
X204Y1706D03*
X1428Y1058D03*
X1908Y1538D03*
X1596Y1874D03*
G54D17*
X344Y1334D03*
G54D18*
X3144Y1633D03*
G54D19*
X2644Y1933D03*
G54D20*
X769Y1614D02*
X924Y1490D01*
X924Y1490D02*
X924Y1394D01*
X924Y1394D02*
X1332Y1394D01*
X1332Y1394D02*
X1339Y1361D01*
D02*
X2413Y1931D02*
X1980Y1898D01*
X1980Y1898D02*
X1980Y1466D01*
X1980Y1466D02*
X1764Y1370D01*
X1764Y1370D02*
X1758Y1359D01*
D02*
X775Y2140D02*
X996Y2186D01*
X996Y2186D02*
X1116Y2186D01*
X1116Y2186D02*
X1116Y1778D01*
X1116Y1778D02*
X1623Y1352D01*
D02*
X1475Y1627D02*
X1889Y1542D01*
D02*
X1475Y1828D02*
X1788Y1778D01*
X1788Y1778D02*
X1788Y1922D01*
X1788Y1922D02*
X2484Y2018D01*
X2484Y2018D02*
X2520Y1970D01*
X2520Y1970D02*
X2508Y1850D01*
X2508Y1850D02*
X2074Y1834D01*
D02*
X1343Y1979D02*
X1427Y1859D01*
D02*
X2196Y1053D02*
X2196Y1610D01*
X2196Y1610D02*
X2067Y1715D01*
D02*
X3118Y1732D02*
X2974Y1733D01*
D02*
X1720Y1869D02*
X1740Y1970D01*
X1740Y1970D02*
X1860Y1970D01*
X1860Y1970D02*
X1860Y2066D01*
X1860Y2066D02*
X2556Y2066D01*
X2556Y2066D02*
X2627Y1960D01*
D02*
X721Y1812D02*
X684Y1778D01*
X684Y1778D02*
X684Y1562D01*
X684Y1562D02*
X780Y1250D01*
X780Y1250D02*
X1356Y986D01*
X1356Y986D02*
X2244Y986D01*
X2244Y986D02*
X2244Y1682D01*
X2244Y1682D02*
X2124Y1802D01*
X2124Y1802D02*
X2556Y1802D01*
X2556Y1802D02*
X2604Y1898D01*
X2604Y1898D02*
X2621Y1913D01*
D02*
X362Y1356D02*
X372Y1370D01*
X372Y1370D02*
X684Y1562D01*
D02*
X756Y1307D02*
X780Y1250D01*
D02*
X2514Y1540D02*
X2292Y1586D01*
X2292Y1586D02*
X2292Y938D01*
X2292Y938D02*
X1308Y938D01*
X1308Y938D02*
X540Y1298D01*
X540Y1298D02*
X541Y1305D01*
D02*
X726Y2008D02*
X276Y1394D01*
X276Y1394D02*
X276Y1250D01*
X276Y1250D02*
X492Y1250D01*
X492Y1250D02*
X839Y904D01*
D02*
X1484Y1196D02*
X1533Y1307D01*
D02*
X2020Y1418D02*
X1908Y1346D01*
X1908Y1346D02*
X1908Y1250D01*
X1908Y1250D02*
X1572Y1130D01*
X1572Y1130D02*
X1428Y1130D01*
X1428Y1130D02*
X1302Y1172D01*
D02*
X239Y1482D02*
X327Y1608D01*
D02*
X2067Y1515D02*
X2124Y1466D01*
X2124Y1466D02*
X2100Y1058D01*
X2100Y1058D02*
X1447Y1058D01*
D02*
X223Y1706D02*
X324Y1706D01*
X324Y1706D02*
X326Y1708D01*
D02*
X1609Y1888D02*
X1812Y2114D01*
X1812Y2114D02*
X2628Y2114D01*
X2628Y2114D02*
X2724Y2042D01*
X2724Y2042D02*
X2724Y1850D01*
X2724Y1850D02*
X2628Y1850D01*
X2628Y1850D02*
X2927Y1457D01*
D02*
X769Y1715D02*
X972Y1562D01*
X972Y1562D02*
X1380Y1442D01*
X1380Y1442D02*
X1430Y1358D01*
D02*
X2363Y1399D02*
X2340Y890D01*
X2340Y890D02*
X780Y842D01*
X780Y842D02*
X228Y1178D01*
X228Y1178D02*
X156Y1442D01*
X156Y1442D02*
X156Y1754D01*
X156Y1754D02*
X327Y2008D01*
G04 End of Copper1*
M02*