G04 MADE WITH FRITZING*
G04 WWW.FRITZING.ORG*
G04 DOUBLE SIDED*
G04 HOLES PLATED*
G04 CONTOUR ON CENTER OF CONTOUR VECTOR*
%ASAXBY*%
%FSLAX23Y23*%
%MOIN*%
%OFA0B0*%
%SFA1.0B1.0*%
%ADD10C,0.077778*%
%ADD11C,0.075000*%
%ADD12C,0.064000*%
%ADD13C,0.062992*%
%ADD14C,0.099000*%
%ADD15C,0.165354*%
%ADD16C,0.039370*%
%ADD17R,0.075000X0.075000*%
%ADD18R,0.062992X0.062992*%
%ADD19R,0.099000X0.099000*%
%ADD20C,0.024000*%
%LNCOPPER0*%
G90*
G70*
G54D10*
X2044Y1133D03*
X2044Y1233D03*
X2044Y1333D03*
X2044Y1433D03*
X2044Y1533D03*
X2044Y1633D03*
X2044Y1733D03*
X2044Y1833D03*
X2944Y1833D03*
X2944Y1733D03*
X2944Y1633D03*
X2944Y1533D03*
X2944Y1433D03*
X2944Y1333D03*
X2944Y1233D03*
X2944Y1133D03*
X2044Y1133D03*
X2044Y1233D03*
X2044Y1333D03*
X2044Y1433D03*
X2044Y1533D03*
X2044Y1633D03*
X2044Y1733D03*
X2044Y1833D03*
X2944Y1833D03*
X2944Y1733D03*
X2944Y1633D03*
X2944Y1533D03*
X2944Y1433D03*
X2944Y1333D03*
X2944Y1233D03*
X2944Y1133D03*
G54D11*
X344Y1333D03*
X444Y1333D03*
X544Y1333D03*
X644Y1333D03*
X744Y1333D03*
X844Y1333D03*
X944Y1333D03*
X1044Y1333D03*
X1144Y1333D03*
X1244Y1333D03*
X1344Y1333D03*
X1444Y1333D03*
X1544Y1333D03*
X1644Y1333D03*
X1744Y1333D03*
X1844Y1333D03*
G54D12*
X344Y1733D03*
X344Y1833D03*
X344Y1933D03*
X344Y2033D03*
X344Y2133D03*
X744Y2133D03*
X744Y2033D03*
X744Y1933D03*
X744Y1833D03*
X744Y1733D03*
X744Y1633D03*
X344Y1633D03*
G54D13*
X3144Y1633D03*
X3144Y1732D03*
G54D14*
X2444Y1933D03*
X2644Y1933D03*
X2544Y1533D03*
G54D11*
X1844Y1833D03*
X1844Y1733D03*
X1844Y1633D03*
G54D12*
X1444Y2033D03*
X1444Y1933D03*
X1444Y1833D03*
X1444Y1733D03*
X1444Y1633D03*
X1044Y1633D03*
X1044Y1733D03*
X1044Y1833D03*
X1044Y1933D03*
X1044Y2033D03*
X1044Y2133D03*
X1444Y2133D03*
G54D15*
X144Y2133D03*
X1644Y2133D03*
X3244Y2133D03*
G54D16*
X1908Y1538D03*
X1332Y1994D03*
X2196Y1034D03*
X1716Y1850D03*
X852Y890D03*
X1476Y1178D03*
X1284Y1178D03*
X228Y1466D03*
X1428Y1058D03*
X204Y1706D03*
X1596Y1874D03*
X2364Y1418D03*
G54D17*
X344Y1334D03*
G54D18*
X3144Y1633D03*
G54D19*
X2644Y1933D03*
G54D20*
X1844Y1362D02*
X1844Y1605D01*
D02*
X2974Y1633D02*
X3118Y1633D01*
D02*
X1027Y1607D02*
X860Y1357D01*
D02*
X1467Y2112D02*
X1668Y1922D01*
X1668Y1922D02*
X2100Y1922D01*
X2100Y1922D02*
X2918Y1546D01*
D02*
X774Y1923D02*
X1015Y1843D01*
D02*
X456Y1360D02*
X684Y1898D01*
X684Y1898D02*
X718Y1918D01*
D02*
X1729Y1358D02*
X1692Y1418D01*
X1692Y1418D02*
X1452Y1418D01*
X1452Y1418D02*
X1066Y1811D01*
D02*
X2915Y1835D02*
X2556Y1850D01*
X2556Y1850D02*
X2470Y1914D01*
D02*
X1061Y2107D02*
X1404Y1562D01*
X1404Y1562D02*
X1818Y1723D01*
D02*
X1911Y1520D02*
X1992Y1082D01*
X1992Y1082D02*
X2004Y1058D01*
X2004Y1058D02*
X2916Y1325D01*
D02*
X369Y1952D02*
X684Y2186D01*
X684Y2186D02*
X1092Y2186D01*
X1092Y2186D02*
X1317Y2006D01*
D02*
X324Y2110D02*
X288Y2066D01*
X288Y2066D02*
X276Y1250D01*
X276Y1250D02*
X1548Y1250D01*
X1548Y1250D02*
X1548Y1010D01*
X1548Y1010D02*
X2148Y1010D01*
X2148Y1010D02*
X2179Y1026D01*
D02*
X2676Y1930D02*
X3012Y1898D01*
X3012Y1898D02*
X3012Y1778D01*
X3012Y1778D02*
X2969Y1749D01*
D02*
X1816Y1837D02*
X1735Y1848D01*
D02*
X871Y892D02*
X1500Y962D01*
X1500Y962D02*
X1478Y1159D01*
D02*
X1284Y1197D02*
X1284Y1202D01*
X1284Y1202D02*
X228Y1202D01*
X228Y1202D02*
X228Y1447D01*
D02*
X1409Y1060D02*
X180Y1154D01*
X180Y1154D02*
X180Y1586D01*
X180Y1586D02*
X200Y1688D01*
D02*
X1467Y1755D02*
X1582Y1861D01*
D02*
X1022Y1711D02*
X665Y1354D01*
D02*
X2069Y1617D02*
X2348Y1429D01*
G04 End of Copper0*
M02*