G04 MADE WITH FRITZING*
G04 WWW.FRITZING.ORG*
G04 DOUBLE SIDED*
G04 HOLES PLATED*
G04 CONTOUR ON CENTER OF CONTOUR VECTOR*
%ASAXBY*%
%FSLAX23Y23*%
%MOIN*%
%OFA0B0*%
%SFA1.0B1.0*%
%ADD10C,0.087778*%
%ADD11C,0.085000*%
%ADD12C,0.074000*%
%ADD13C,0.072992*%
%ADD14C,0.109000*%
%ADD15C,0.175354*%
%ADD16C,0.049370*%
%ADD17R,0.085000X0.085000*%
%ADD18R,0.072992X0.072992*%
%ADD19R,0.109000X0.109000*%
%LNMASK0*%
G90*
G70*
G54D10*
X2044Y1133D03*
X2044Y1233D03*
X2044Y1333D03*
X2044Y1433D03*
X2044Y1533D03*
X2044Y1633D03*
X2044Y1733D03*
X2044Y1833D03*
X2944Y1833D03*
X2944Y1733D03*
X2944Y1633D03*
X2944Y1533D03*
X2944Y1433D03*
X2944Y1333D03*
X2944Y1233D03*
X2944Y1133D03*
X2044Y1133D03*
X2044Y1233D03*
X2044Y1333D03*
X2044Y1433D03*
X2044Y1533D03*
X2044Y1633D03*
X2044Y1733D03*
X2044Y1833D03*
X2944Y1833D03*
X2944Y1733D03*
X2944Y1633D03*
X2944Y1533D03*
X2944Y1433D03*
X2944Y1333D03*
X2944Y1233D03*
X2944Y1133D03*
G54D11*
X344Y1333D03*
X444Y1333D03*
X544Y1333D03*
X644Y1333D03*
X744Y1333D03*
X844Y1333D03*
X944Y1333D03*
X1044Y1333D03*
X1144Y1333D03*
X1244Y1333D03*
X1344Y1333D03*
X1444Y1333D03*
X1544Y1333D03*
X1644Y1333D03*
X1744Y1333D03*
X1844Y1333D03*
G54D12*
X344Y1733D03*
X344Y1833D03*
X344Y1933D03*
X344Y2033D03*
X344Y2133D03*
X744Y2133D03*
X744Y2033D03*
X744Y1933D03*
X744Y1833D03*
X744Y1733D03*
X744Y1633D03*
X344Y1633D03*
G54D13*
X3144Y1633D03*
X3144Y1732D03*
G54D14*
X2444Y1933D03*
X2644Y1933D03*
X2544Y1533D03*
G54D11*
X1844Y1833D03*
X1844Y1733D03*
X1844Y1633D03*
G54D12*
X1444Y2033D03*
X1444Y1933D03*
X1444Y1833D03*
X1444Y1733D03*
X1444Y1633D03*
X1044Y1633D03*
X1044Y1733D03*
X1044Y1833D03*
X1044Y1933D03*
X1044Y2033D03*
X1044Y2133D03*
X1444Y2133D03*
G54D15*
X144Y2133D03*
X1644Y2133D03*
X3244Y2133D03*
G54D16*
X1908Y1538D03*
X1332Y1994D03*
X2196Y1034D03*
X1716Y1850D03*
X852Y890D03*
X1476Y1178D03*
X1284Y1178D03*
X228Y1466D03*
X1428Y1058D03*
X204Y1706D03*
X1596Y1874D03*
X2364Y1418D03*
G54D17*
X344Y1334D03*
G54D18*
X3144Y1633D03*
G54D19*
X2644Y1933D03*
G04 End of Mask0*
M02*